<svg width="134" height="40" viewBox="0 0 134 40" fill="none" xmlns="http://www.w3.org/2000/svg">
<path d="M133.111 35.2775C133.111 36.2943 132.71 37.2695 131.996 37.9881C131.281 38.7067 130.313 39.1099 129.303 39.1088H4.69646C2.59343 39.111 0.886651 37.3959 0.883911 35.2778V4.72626C0.88665 2.60728 2.59262 0.890809 4.69646 0.890259H129.303C130.313 0.890192 131.281 1.29434 131.995 2.01377C132.71 2.73319 133.111 3.70894 133.11 4.72626L133.111 35.2775Z" fill="white"/>
<path d="M129.303 40H4.69645C2.1059 39.9995 0.00479092 37.8867 0 35.2775V4.7275C0.00369443 2.11704 2.10465 0.00220236 4.69645 0H129.303C131.894 0.0033011 133.994 2.1175 133.999 4.7275V35.2775C134.001 37.8825 131.891 40 129.304 40H129.303Z" fill="#A6A6A6"/>
<path d="M133.111 35.2775C133.111 36.2943 132.71 37.2695 131.996 37.9881C131.281 38.7067 130.313 39.1099 129.303 39.1088H4.69646C2.59343 39.111 0.886651 37.3959 0.883911 35.2778V4.72626C0.88665 2.60728 2.59262 0.890809 4.69646 0.890259H129.303C130.313 0.890192 131.281 1.29434 131.995 2.01377C132.71 2.73319 133.111 3.70894 133.11 4.72626L133.111 35.2775Z" fill="black"/>
<path fill-rule="evenodd" clip-rule="evenodd" d="M28.04 6.21875C28.2048 7.728 27.6109 9.2155 26.7429 10.3087C25.8372 11.3853 24.3882 12.2083 22.977 12.1023C22.7924 10.65 23.5073 9.1055 24.3078 8.16325C25.2126 7.09375 26.7836 6.27475 28.04 6.21875ZM32.6598 14.9259C32.502 15.0208 29.8924 16.5899 29.921 19.7895C29.9547 23.6525 33.2779 24.9307 33.3176 24.9447C33.2978 25.035 32.797 26.7892 31.5508 28.5687C30.5098 30.1362 29.4194 31.6698 27.6874 31.6968C26.8641 31.7157 26.3081 31.4775 25.7288 31.2293C25.1244 30.9703 24.4946 30.7005 23.5093 30.7005C22.4653 30.7005 21.8077 30.9791 21.1736 31.2477C20.6249 31.4801 20.0938 31.7051 19.3451 31.7358C17.6954 31.7968 16.4353 30.0632 15.3566 28.5088C13.2007 25.337 11.5223 19.5705 13.7727 15.6463C14.8631 13.722 16.8515 12.4825 18.9769 12.4495C19.9127 12.4301 20.8103 12.7934 21.5972 13.1119C22.1989 13.3554 22.7358 13.5728 23.1755 13.5728C23.5619 13.5728 24.0839 13.3641 24.6922 13.1209C25.6509 12.7377 26.8241 12.2687 28.0191 12.3955C28.8365 12.4195 31.1624 12.7205 32.663 14.924L32.6598 14.9259Z" fill="white"/>
<path d="M129.303 0H62.5602L88.7023 40H129.303C131.894 39.9978 133.995 37.8843 134 35.2747V4.7273C133.995 2.11714 131.895 0.0027531 129.303 0Z" fill="url(#paint0_linear_0_716)"/>
<path fill-rule="evenodd" clip-rule="evenodd" d="M70.6016 13.4368H69.5597V6.55481H70.6016V13.4368ZM44.9004 13.4948C44.3113 13.4948 43.8019 13.4658 43.3778 13.4168V6.98106C43.9709 6.88879 44.5703 6.84332 45.1704 6.84506C47.5988 6.84506 48.717 8.04831 48.717 10.0098C48.717 12.2723 47.3961 13.4948 44.9004 13.4948ZM86.2603 30.5446C87.0417 29.8333 87.435 28.9121 87.435 27.7788C87.435 26.8596 87.167 26.0883 86.6275 25.4701C86.0923 24.8518 85.256 24.3138 84.118 23.8516C83.1904 23.4836 82.549 23.1403 82.1973 22.8253C81.7921 22.4833 81.5886 22.0471 81.5886 21.5221C81.5886 21.0458 81.7673 20.6448 82.1197 20.3156C82.5391 19.9476 83.1247 19.7626 83.8716 19.7626C84.8171 19.7626 85.6622 19.9666 86.4112 20.3746L86.9424 18.6363C86.1469 18.2151 85.1449 18.0038 83.9423 18.0038C82.5956 18.0038 81.5132 18.3531 80.6968 19.0513C79.8804 19.7506 79.4712 20.6446 79.4712 21.7371C79.4712 23.4096 80.6291 24.6808 82.943 25.5501C83.7942 25.8651 84.4002 26.2083 84.7664 26.5763C85.131 26.9456 85.3168 27.3986 85.3168 27.9398C85.3168 28.5438 85.0925 29.0281 84.6483 29.3901C84.2056 29.7513 83.5847 29.9331 82.7862 29.9331C81.676 29.9331 80.6559 29.6573 79.7273 29.1031L79.2377 30.8806C80.0978 31.4338 81.238 31.7096 82.6601 31.7096C84.1994 31.7096 85.4002 31.3206 86.2603 30.5446ZM53.2963 31.5126H51.0409L49.8053 27.6026H45.5111L44.3342 31.5126H42.1385L46.394 18.2011H49.0219L53.2963 31.5126ZM49.4331 25.9623L48.3157 22.4863C48.1976 22.1313 47.975 21.2948 47.6494 19.9786H47.6097C47.4784 20.5448 47.269 21.3811 46.9819 22.4861L45.8836 25.9623H49.4331ZM62.8979 30.4653C63.7788 29.5181 64.2188 28.2278 64.2188 26.5953C64.2188 25.1341 63.8423 23.9556 63.0924 23.0586C62.3418 22.1631 61.4033 21.7161 60.2792 21.7161C58.8409 21.7161 57.7694 22.2893 57.0632 23.4356H57.0235L56.9053 21.9141H55.0432C55.0949 22.9923 55.1217 24.0436 55.1217 25.0691V35.4048H57.2389V30.3683C57.7902 31.2766 58.698 31.7298 59.9601 31.7298C61.1291 31.7298 62.1093 31.3086 62.8979 30.4653ZM62.0616 26.6733C62.0616 25.7391 61.8532 24.9688 61.4338 24.3618C60.9762 23.7306 60.3613 23.4143 59.5908 23.4143C59.0682 23.4143 58.5935 23.5906 58.1697 23.9376C57.7446 24.2876 57.4664 24.7451 57.3364 25.3111C57.2782 25.5228 57.2452 25.7407 57.2379 25.9603V27.5616C57.2379 28.2591 57.4505 28.8481 57.8756 29.3301C58.3007 29.8101 58.8528 30.0513 59.532 30.0513C60.3295 30.0513 60.9504 29.7403 61.3943 29.1231C61.839 28.5038 62.0616 27.6876 62.0616 26.6733ZM73.8591 30.4653C74.74 29.5181 75.18 28.2278 75.18 26.5953C75.18 25.1341 74.8025 23.9556 74.0536 23.0586C73.3007 22.1631 72.3622 21.7161 71.2391 21.7161C69.8001 21.7161 68.7284 22.2893 68.0234 23.4356H67.9837L67.8656 21.9141H66.0035C66.0551 22.9923 66.0819 24.0436 66.0819 25.0691V35.4048H68.1991V30.3683C68.7505 31.2766 69.6582 31.7298 70.9203 31.7298C72.0903 31.7298 73.0695 31.3086 73.8591 30.4653ZM73.0218 26.6733C73.0218 25.7391 72.8121 24.9688 72.393 24.3618C71.9352 23.7306 71.3225 23.4143 70.5518 23.4143C70.0294 23.4143 69.5547 23.5906 69.1286 23.9376C68.7036 24.2876 68.4264 24.7451 68.2966 25.3111C68.2321 25.5751 68.1973 25.7901 68.1973 25.9603V27.5616C68.1973 28.2591 68.4107 28.8481 68.8338 29.3301C69.2589 29.8093 69.811 30.0513 70.4922 30.0513C71.2907 30.0513 71.9116 29.7403 72.3543 29.1231C72.7992 28.5038 73.0218 27.6876 73.0218 26.6733ZM94.4534 23.5146H92.1196V28.1748C92.1196 29.3601 92.5307 29.9513 93.3551 29.9513C93.7335 29.9513 94.0474 29.9193 94.2956 29.8523L94.3541 31.4718C93.9372 31.6288 93.3878 31.7078 92.7077 31.7078C91.8714 31.7078 91.2178 31.4508 90.7461 30.9366C90.2763 30.4223 90.0401 29.5613 90.0401 28.3491V23.5103H88.6497V21.9101H90.0401V20.1526L92.1196 19.5203V21.9103H94.4534V23.5146ZM103.708 30.2683C104.544 29.3211 104.963 28.1096 104.963 26.6346V26.6343C104.963 25.1981 104.558 24.0276 103.746 23.1213C102.896 22.1871 101.773 21.7188 100.374 21.7188C98.9235 21.7188 97.7696 22.1931 96.9125 23.1413C96.0574 24.0886 95.6284 25.3068 95.6284 26.7943C95.6284 28.2158 96.0435 29.3943 96.8738 30.3293C97.7039 31.2626 98.8173 31.7298 100.218 31.7298C101.669 31.7298 102.833 31.2436 103.708 30.2683ZM102.768 26.6833C102.768 25.8041 102.579 25.0501 102.201 24.4188C101.757 23.6566 101.121 23.2756 100.298 23.2756C99.4499 23.2756 98.7992 23.6566 98.3565 24.4188C97.9771 25.0501 97.7883 25.8171 97.7883 26.7233C97.7883 27.6036 97.9771 28.3598 98.3565 28.9891C98.8143 29.7513 99.4528 30.1323 100.28 30.1323C101.09 30.1323 101.724 29.7433 102.183 28.9698C102.573 28.3238 102.768 27.5648 102.768 26.6833ZM111.181 23.7306C111.404 23.7298 111.628 23.7495 111.848 23.7896L111.846 21.7551C111.689 21.7301 111.513 21.7161 111.317 21.7161C110.765 21.7168 110.228 21.8971 109.786 22.2301C109.304 22.6113 108.952 23.1203 108.728 23.7516H108.669L108.592 21.9151H106.747C106.79 22.9217 106.811 23.9292 106.809 24.9368V31.5128H108.926V26.4763C108.926 25.7133 109.103 25.0808 109.455 24.5808C109.86 24.0126 110.436 23.7306 111.181 23.7306ZM121.317 26.2593C121.323 26.5835 121.297 26.9074 121.24 27.2266H114.888C114.912 28.1748 115.22 28.9011 115.81 29.4011C116.345 29.8473 117.037 30.0713 117.887 30.0713C118.828 30.0713 119.686 29.9213 120.458 29.6183L120.789 31.0976C119.888 31.4938 118.823 31.6908 117.594 31.6908C116.117 31.6908 114.957 31.2526 114.112 30.3783C113.27 29.5033 112.848 28.3268 112.848 26.8533C112.848 25.4071 113.24 24.2018 114.026 23.2406C114.848 22.2141 115.96 21.7011 117.358 21.7011C118.731 21.7011 119.771 22.2141 120.477 23.2406C121.037 24.0536 121.318 25.0621 121.318 26.2593H121.317ZM118.888 24.0666C119.174 24.5278 119.313 25.0731 119.298 25.7061L114.889 25.7041C114.954 25.0611 115.163 24.5068 115.516 24.0456C115.945 23.4656 116.509 23.1766 117.201 23.1766C117.957 23.1766 118.521 23.4726 118.888 24.0666ZM44.4178 7.73831C44.6491 7.69006 44.9282 7.67006 45.2558 7.67006C46.7983 7.67006 47.6177 8.51531 47.6177 10.0388C47.6177 11.7471 46.7119 12.6596 45.1208 12.6596C44.7831 12.6596 44.5429 12.6506 44.4178 12.6306V7.73831ZM52.2019 13.5438C50.8334 13.5438 49.9463 12.5146 49.9463 11.1171C49.9463 9.66081 50.852 8.62231 52.2794 8.62231C53.6281 8.62231 54.5348 9.60281 54.5348 11.0401C54.5348 12.5146 53.6003 13.5438 52.2019 13.5438ZM51.0081 11.0871C51.0081 10.0968 51.4898 9.38881 52.2417 9.38881V9.38856C52.9737 9.38856 53.4551 10.1071 53.4551 11.0671C53.4551 12.0093 52.9633 12.7666 52.2315 12.7666C51.4997 12.7666 51.0081 12.0583 51.0081 11.0871ZM62.3388 8.71956L60.8737 13.4368H59.9194L59.3126 11.3883C59.1617 10.8872 59.0361 10.3787 58.9362 9.86481H58.9163C58.8399 10.3788 58.695 10.8941 58.5409 11.3883L57.8955 13.4368H56.9312L55.5527 8.71931H56.6222L57.1525 10.9621C57.2778 11.4963 57.383 12.0003 57.4704 12.4766H57.4902C57.5667 12.0793 57.6917 11.5833 57.8756 10.9721L58.5409 8.72056H59.3891L60.0258 10.9241C60.1734 11.4362 60.2989 11.9545 60.402 12.4776H60.4298C60.4975 11.9926 60.6035 11.4773 60.7477 10.9241L61.3167 8.72056L62.3388 8.71956ZM66.6906 13.4368H67.7313L67.7323 10.6118C67.7323 9.37956 67.0869 8.62206 66.1037 8.62206C65.467 8.62206 64.8989 8.94231 64.619 9.44631H64.59L64.5414 8.71831H63.6257C63.6545 9.20331 63.6644 9.65056 63.6644 10.0676V13.4368H64.7054V10.6311C64.7054 10.0098 65.1295 9.47556 65.7461 9.47556C66.3729 9.47556 66.6906 9.89381 66.6906 10.7281V13.4368ZM72.1406 11.1171C72.1406 12.5146 73.0288 13.5438 74.3963 13.5438C75.7936 13.5438 76.7292 12.5146 76.7282 11.0401C76.7282 9.60281 75.8224 8.62231 74.4727 8.62231C73.0464 8.62231 72.1406 9.66081 72.1406 11.1171ZM74.435 9.38881C73.6831 9.38881 73.2017 10.0968 73.2017 11.0871C73.2017 12.0583 73.6941 12.7666 74.4241 12.7666C75.1569 12.7666 75.6475 12.0093 75.6475 11.0671C75.6487 10.1071 75.1678 9.38856 74.435 9.38856V9.38881ZM80.7564 12.8936L80.8318 13.4368L81.7703 13.4378C81.7236 13.1566 81.7028 12.7876 81.7028 12.3116V10.5741C81.7028 9.27256 81.0849 8.62231 79.8615 8.62231C79.2268 8.62231 78.6866 8.75856 78.2535 9.03056L78.4652 9.71956C78.8215 9.48656 79.227 9.36956 79.6886 9.36956C80.3343 9.36956 80.6608 9.68081 80.6608 10.3018V10.3888C78.926 10.3888 77.9237 10.9911 77.9237 12.1553C77.9237 12.9516 78.5198 13.5436 79.3588 13.5436C79.9469 13.5436 80.4107 13.3308 80.7286 12.8936H80.7564ZM80.6886 11.0871C79.5327 11.0871 78.9528 11.3693 78.9528 12.0383C78.9528 12.5333 79.2516 12.7756 79.6667 12.7756C80.196 12.7756 80.6886 12.3686 80.6886 11.8153V11.0871ZM86.7082 12.6793L86.7568 13.4368L87.6834 13.4366C87.6556 13.0483 87.6447 12.6213 87.6447 12.1651V6.55506H86.6027V9.26256H86.5819C86.3317 8.83456 85.8878 8.62131 85.261 8.62131C84.0773 8.62131 83.2103 9.66081 83.2103 11.1363C83.2103 12.5436 84.0466 13.5438 85.1756 13.5438C85.8779 13.5438 86.3804 13.2518 86.6794 12.6793H86.7082ZM86.603 10.6611C86.603 10.0008 86.1687 9.43756 85.5064 9.43756C84.7347 9.43756 84.2632 10.1268 84.2632 11.0971C84.2632 12.0483 84.7525 12.6996 85.4856 12.6996C86.1399 12.6996 86.6027 12.1263 86.6027 11.4471L86.603 10.6611ZM91.9955 11.1171C91.9955 12.5146 92.8824 13.5436 94.2499 13.5436V13.5438C95.6492 13.5438 96.5837 12.5146 96.583 11.0401C96.583 9.60281 95.6773 8.62231 94.3273 8.62231C92.9012 8.62231 91.9955 9.66081 91.9955 11.1171ZM94.2886 9.38856C93.5377 9.38856 93.0561 10.0968 93.0561 11.0871C93.0561 12.0583 93.5476 12.7666 94.2787 12.7666C95.0117 12.7666 95.5021 12.0093 95.5021 11.0671C95.5043 10.1071 95.0226 9.38856 94.2886 9.38856ZM101.138 13.4368H102.18V10.6108C102.18 9.37831 101.534 8.62131 100.55 8.62131C99.9146 8.62131 99.3456 8.94231 99.0665 9.44631H99.0377L98.989 8.71831H98.0734C98.1022 9.20331 98.1121 9.65056 98.1121 10.0676V13.4368H99.1541V10.6311C99.1541 10.0098 99.5772 9.47556 100.194 9.47556C100.821 9.47556 101.138 9.89381 101.138 10.7281V13.4368ZM109.183 9.50556H108.038V11.7963C108.038 12.3796 108.238 12.6706 108.643 12.6706C108.827 12.6706 108.981 12.6506 109.105 12.6216L109.134 13.4178C108.932 13.4958 108.662 13.5348 108.327 13.5348C107.506 13.5348 107.016 13.0786 107.016 11.8843V9.50556H106.332V8.71956H107.016V7.85506L108.038 7.54381V8.71831H109.182L109.183 9.50556ZM113.653 13.4368H114.692V10.6311C114.692 9.39756 114.087 8.62131 113.096 8.62131C112.49 8.62131 112.015 8.87456 111.687 9.38856H111.666V6.55481H110.627V13.4368H111.666V10.5931C111.666 9.84581 112.169 9.47656 112.708 9.47656C113.336 9.47656 113.653 9.90381 113.653 10.7481V13.4368ZM120.337 11.3301H117.214C117.234 12.2233 117.821 12.7276 118.69 12.7276C119.152 12.7276 119.577 12.6496 119.952 12.5046L120.114 13.2328C119.671 13.4268 119.15 13.5238 118.543 13.5238C117.078 13.5238 116.211 12.5913 116.211 11.1463C116.211 9.69981 117.099 8.61231 118.426 8.61231C119.622 8.61231 120.373 9.50556 120.373 10.8548C120.38 11.0141 120.368 11.1736 120.337 11.3301ZM118.353 9.34056C119.018 9.34056 119.383 9.85481 119.383 10.5831H117.215C117.283 9.86481 117.755 9.34056 118.353 9.34056Z" fill="white"/>
<defs>
<linearGradient id="paint0_linear_0_716" x1="227.102" y1="40.1062" x2="227.102" y2="-104.153" gradientUnits="userSpaceOnUse">
<stop stop-color="#1A1A1A" stop-opacity="0.1"/>
<stop offset="0.123" stop-color="#212121" stop-opacity="0.151"/>
<stop offset="0.308" stop-color="#353535" stop-opacity="0.227"/>
<stop offset="0.532" stop-color="#575757" stop-opacity="0.318"/>
<stop offset="0.783" stop-color="#858585" stop-opacity="0.421"/>
<stop offset="1" stop-color="#B3B3B3" stop-opacity="0.51"/>
</linearGradient>
</defs>
</svg>
