<svg width="134" height="40" viewBox="0 0 134 40" fill="none" xmlns="http://www.w3.org/2000/svg">
<path d="M129.037 40H4.96296C2.1837 40 0 37.8 0 35V5C0 2.2 2.1837 0 4.96296 0H129.037C131.816 0 134 2.2 134 5V35C134 37.8 131.816 40 129.037 40Z" fill="black"/>
<path fill-rule="evenodd" clip-rule="evenodd" d="M4.96296 0H129.037C131.816 0 134 2.3 134 5V35C134 37.8 131.816 40 129.037 40H4.96296C2.1837 40 0 37.8 0 35V5C0 2.3 2.1837 0 4.96296 0ZM133.206 5C133.206 2.7 131.32 0.8 129.037 0.8H4.96296C2.68 0.8 0.794074 2.7 0.794074 5V35C0.794074 37.3 2.68 39.2 4.96296 39.2H129.037C131.32 39.2 133.206 37.3 133.206 35V5Z" fill="#A6A6A6"/>
<path fill-rule="evenodd" clip-rule="evenodd" d="M46.3541 12.2C46.8504 11.7 47.0489 11 47.0489 10.2V9.80002H44.1704V10.6H46.3541C46.3541 11.1 46.1555 11.5 45.8578 11.8C45.3615 12.3 44.8652 12.5 44.1704 12.5C43.5748 12.5 43.0785 12.2 42.5822 11.8C42.0859 11.4 41.8874 10.8 41.8874 10.1C41.8874 9.40002 42.0859 8.80002 42.5822 8.40002C42.9792 7.90002 43.5748 7.70002 44.1704 7.70002C44.8652 7.70002 45.3615 7.90002 45.7585 8.40002L46.2548 7.90002C46.0563 7.60002 45.7585 7.40002 45.3615 7.20002C44.9644 7.00002 44.5674 6.90002 44.1704 6.90002C43.277 6.90002 42.5822 7.20002 41.9867 7.80002C41.3911 8.40002 41.0933 9.10002 41.0933 10C41.0933 10.9 41.3911 11.6 41.9867 12.2C42.5822 12.8 43.277 13.1 44.1704 13.1C45.0637 13.1 45.7585 12.8 46.3541 12.2ZM48.9348 7.70002H51.6148V7.00002H48.1407V13H51.6148V12.2H48.9348V10.3H51.4163V9.60002H48.9348V7.70002ZM54.8904 13H54.0963V7.70002H52.4089V7.00002H56.5778V7.70002H54.8904V13ZM59.4563 7.00002V13H60.2504V7.00002H59.4563ZM63.5259 13H62.8311V7.70002H61.1437V7.00002H65.2133V7.70002H63.5259V13ZM70.8711 13.1C71.7644 13.1 72.4592 12.8 73.0548 12.2C73.6504 11.6 73.9481 10.9 73.9481 10C73.9481 9.10002 73.6504 8.40002 73.0548 7.80002C72.4592 7.20002 71.7644 6.90002 70.8711 6.90002C69.9778 6.90002 69.283 7.20002 68.6874 7.80002C68.0918 8.40002 67.7941 9.10002 67.7941 10C67.7941 10.9 68.0918 11.6 68.6874 12.2C69.283 12.8 69.9778 13.1 70.8711 13.1ZM69.283 11.7C69.68 12.1 70.2755 12.4 70.8711 12.4C71.4667 12.4 72.0622 12.2 72.4592 11.7C72.8563 11.3 73.1541 10.7 73.1541 10C73.1541 9.30002 72.9555 8.70002 72.4592 8.30002C72.0622 7.90002 71.4667 7.60002 70.8711 7.60002C70.2755 7.60002 69.68 7.80002 69.283 8.30002C68.8859 8.70002 68.5881 9.30002 68.5881 10C68.5881 10.7 68.7867 11.3 69.283 11.7ZM75.04 7.00002V13H75.7348V8.10002L78.8118 13H79.6059V7.00002H78.8118V11.7L75.9333 7.00002H75.04Z" fill="white"/>
<path fill-rule="evenodd" clip-rule="evenodd" d="M47.3467 23.1V24.9H51.6148C51.5156 25.9 51.1185 26.7 50.6222 27.2C50.0267 27.8 49.0341 28.5 47.3467 28.5C44.6667 28.5 42.6815 26.4 42.6815 23.7C42.6815 21 44.7659 18.9 47.3467 18.9C48.7363 18.9 49.8282 19.5 50.6222 20.2L51.9126 18.9C50.8207 17.9 49.4311 17.1 47.4459 17.1C43.8726 17.1 40.7956 20.1 40.7956 23.7C40.7956 27.3 43.8726 30.3 47.4459 30.3C49.4311 30.3 50.8207 29.7 52.0119 28.4C53.203 27.2 53.6 25.5 53.6 24.2V24.2C53.6 23.8 53.6 23.4 53.5007 23.1H47.3467ZM58.3645 21.8C55.9822 21.8 54.0963 23.6 54.0963 26.1C54.0963 28.5 55.9822 30.4 58.3645 30.4C60.7467 30.4 62.6326 28.6 62.6326 26.1C62.6326 23.5 60.7467 21.8 58.3645 21.8ZM63.3274 26.1C63.3274 23.6 65.2133 21.8 67.5956 21.8C69.9778 21.8 71.8637 23.5 71.8637 26.1C71.8637 28.6 69.9778 30.4 67.5956 30.4C65.2133 30.4 63.3274 28.5 63.3274 26.1ZM65.2133 26C65.2133 27.5 66.3052 28.6 67.5956 28.6C68.8859 28.6 69.9778 27.5 69.9778 26C69.9778 24.4 68.8859 23.4 67.5956 23.4C66.3052 23.4 65.2133 24.5 65.2133 26ZM55.9822 26C55.9822 27.5 57.0741 28.6 58.3645 28.6C59.6548 28.6 60.7467 27.5 60.7467 26C60.7467 24.4 59.6548 23.4 58.3645 23.4C57.0741 23.4 55.9822 24.5 55.9822 26ZM88.837 21.8C91.0207 21.8 92.0133 23.5 92.4104 24.5L92.6089 25L86.9511 27.4C87.4474 28.3 88.043 28.7 89.0356 28.7C90.0282 28.7 90.6237 28.2 91.12 27.5L92.5096 28.5C92.1126 29.2 90.9215 30.4 89.0356 30.4C86.6533 30.4 84.8667 28.5 84.8667 26.1C84.8667 23.5 86.6533 21.8 88.837 21.8ZM86.6533 25.9C86.6533 24.3 87.9437 23.4 88.837 23.4C89.5319 23.4 90.2267 23.8 90.4252 24.3L86.6533 25.9ZM83.8741 30H81.9882V17.5H83.8741V30ZM79.0104 22.7C78.5141 22.2 77.72 21.7 76.7274 21.7C74.643 21.7 72.6578 23.6 72.6578 26C72.6578 28.4 74.5437 30.2 76.7274 30.2C77.72 30.2 78.5141 29.7 78.9111 29.2H79.0104V29.8C79.0104 31.4 78.117 32.3 76.7274 32.3C75.6356 32.3 74.8415 31.5 74.643 30.8L73.0548 31.5C73.5511 32.6 74.7422 34 76.8267 34C79.0104 34 80.797 32.7 80.797 29.6V22H79.0104V22.7ZM74.4445 26C74.4445 27.5 75.5363 28.6 76.8267 28.6C78.117 28.6 79.1096 27.5 79.1096 26C79.1096 24.5 78.117 23.4 76.8267 23.4C75.5363 23.4 74.4445 24.5 74.4445 26ZM101.046 17.5H96.5793V30H98.4652V25.3H101.046C103.13 25.3 105.116 23.8 105.116 21.4C105.116 19 103.13 17.5 101.046 17.5ZM98.4652 23.5H101.145C102.436 23.5 103.23 22.4 103.329 21.3C103.329 20.4 102.535 19.2 101.145 19.2H98.4652V23.5ZM112.56 21.7C111.17 21.7 109.781 22.3 109.284 23.6L110.972 24.3C111.369 23.6 111.964 23.4 112.659 23.4C113.652 23.4 114.545 24 114.644 25V25.1C114.347 24.9 113.553 24.6 112.759 24.6C110.972 24.6 109.185 25.6 109.185 27.4C109.185 29.1 110.674 30.2 112.262 30.2C113.553 30.2 114.148 29.6 114.644 29H114.744V30H116.53V25.2C116.332 23 114.644 21.7 112.56 21.7ZM110.873 27.5C110.873 28.3 111.766 28.6 112.361 28.6C113.354 28.6 114.347 27.8 114.545 26.6C114.495 26.5798 114.446 26.5596 114.397 26.5396C113.965 26.3616 113.572 26.2 112.858 26.2C111.964 26.2 110.873 26.5 110.873 27.5ZM122.784 22L120.699 27.4H120.6L118.416 22H116.431L119.707 29.6L117.821 33.8H119.707L124.769 22H122.784ZM107.994 30H106.108V17.5H107.994V30Z" fill="white"/>
<path d="M10.323 7.5C10.0252 7.8 9.92593 8.3 9.92593 8.9V31C9.92593 31.6 10.1245 32.1 10.4222 32.4L10.5215 32.5L22.8296 20.1V19.9L10.323 7.5Z" fill="url(#paint0_linear_0_759)"/>
<path d="M26.8 24.3L22.7304 20.2V19.9L26.8 15.8L26.8993 15.9L31.763 18.7C33.1526 19.5 33.1526 20.8 31.763 21.6L26.8 24.3Z" fill="url(#paint1_linear_0_759)"/>
<path d="M26.8993 24.2L22.7304 20L10.323 32.5C10.8193 33 11.5141 33 12.4074 32.6L26.8993 24.2Z" fill="url(#paint2_linear_0_759)"/>
<path d="M26.8993 15.8L12.4074 7.49999C11.5141 6.99999 10.8193 7.09999 10.323 7.59999L22.7304 20L26.8993 15.8Z" fill="url(#paint3_linear_0_759)"/>
<path opacity="0.2" d="M26.8 24.1L12.4074 32.3C11.6133 32.8 10.9185 32.7 10.4222 32.3L10.323 32.4L10.4222 32.5C10.9185 32.9 11.6133 33 12.4074 32.5L26.8 24.1Z" fill="black"/>
<path opacity="0.12" fill-rule="evenodd" clip-rule="evenodd" d="M26.8 24.1L31.763 21.3C32.3585 20.9 32.7556 20.5 32.7556 20C32.7556 20.5 32.4578 21 31.763 21.4L26.8993 24.2L26.8 24.1ZM9.94384 31.307C9.98388 31.725 10.0955 32.0708 10.323 32.3H10.3326C10.3614 32.3354 10.3913 32.3688 10.4222 32.4V32.3H10.3326C10.1339 32.0548 9.99194 31.7114 9.94384 31.307ZM9.94384 31.307C9.93147 31.1778 9.92593 31.0417 9.92593 30.9V31C9.92593 31.1056 9.93208 31.2081 9.94384 31.307Z" fill="black"/>
<path opacity="0.25" d="M12.4074 7.60003L31.763 18.7C32.3585 19.1 32.7556 19.5 32.7556 20C32.7556 19.5 32.4578 19 31.763 18.6L12.4074 7.50003C11.0178 6.70003 9.92593 7.30003 9.92593 8.90003V9.00003C9.92593 7.50003 11.0178 6.80003 12.4074 7.60003Z" fill="white"/>
<defs>
<linearGradient id="paint0_linear_0_759" x1="17.3075" y1="-7.4275" x2="-2.43323" y2="-2.12946" gradientUnits="userSpaceOnUse">
<stop stop-color="#00A0FF"/>
<stop offset="0.007" stop-color="#00A1FF"/>
<stop offset="0.26" stop-color="#00BEFF"/>
<stop offset="0.512" stop-color="#00D2FF"/>
<stop offset="0.76" stop-color="#00DFFF"/>
<stop offset="1" stop-color="#00E3FF"/>
</linearGradient>
<linearGradient id="paint1_linear_0_759" x1="33.5834" y1="9.8693" x2="9.56562" y2="9.8693" gradientUnits="userSpaceOnUse">
<stop stop-color="#FFE000"/>
<stop offset="0.409" stop-color="#FFBD00"/>
<stop offset="0.775" stop-color="#FFA500"/>
<stop offset="1" stop-color="#FF9C00"/>
</linearGradient>
<linearGradient id="paint2_linear_0_759" x1="10.0083" y1="13.514" x2="-6.01321" y2="40.2133" gradientUnits="userSpaceOnUse">
<stop stop-color="#FF3A44"/>
<stop offset="1" stop-color="#C31162"/>
</linearGradient>
<linearGradient id="paint3_linear_0_759" x1="0.677027" y1="4.07953" x2="7.7756" y2="16.0196" gradientUnits="userSpaceOnUse">
<stop stop-color="#32A071"/>
<stop offset="0.069" stop-color="#2DA771"/>
<stop offset="0.476" stop-color="#15CF74"/>
<stop offset="0.801" stop-color="#06E775"/>
<stop offset="1" stop-color="#00F076"/>
</linearGradient>
</defs>
</svg>
